<?xml version="1.0" encoding="utf-8"?>
<!-- Generator: Adobe Illustrator 26.5.0, SVG Export Plug-In . SVG Version: 6.00 Build 0)  -->
<svg version="1.1" id="windmills" xmlns="http://www.w3.org/2000/svg" xmlns:xlink="http://www.w3.org/1999/xlink" x="0px" y="0px"
	 viewBox="0 0 596.3 381.7" enable-background="new 0 0 596.3 381.7" xml:space="preserve">
<g id="background">
	<g>
		<rect fill="#FFFFFF" width="596.3" height="381.7"/>
		<g>
			<g>
				<defs>
					<rect id="SVGID_1_" width="596.3" height="381.7"/>
				</defs>
				<clipPath id="SVGID_00000173156608793076443650000006140139699221494462_">
					<use xlink:href="#SVGID_1_"  overflow="visible"/>
				</clipPath>
				<g clip-path="url(#SVGID_00000173156608793076443650000006140139699221494462_)">
					<path fill="#D9E8FF" d="M549-56.5c-69,15.9-90.3,74-97.1,102c-5.2,21.7-17.7,42.1-36.6,55.6c-22.1,15.8-50.9,19.2-76.2,27.4
						c-22.5,7.3-47.3,19.9-55.6,43.7c-5.8,16.6-6.7,51.1-33.1,66.8c-8.9,5.3-24.7,10.3-27.9,21.7c-3.3,12.1,1.6,22.8,17.9,27.8
						c15.2,4.7,38.1-2.2,68.4,0c25.5,1.8,27.9,26.6,46.2,39.6c22.4,15.8,53.6,4.2,78.9,11.4c18.3,5.2,34.5,15.9,53.1,19.9
						c26.9,5.9,55.1,4,82.1-0.8c32.3-5.8,89.7-29.6,117-83.5c19-20,68.7-262.4,0-327.3c-19.8-18.8-88-34.9-114.2-27"/>
				</g>
			</g>
			<g>
				<defs>
					<rect id="SVGID_00000162326610254296117220000017396434461610714267_" width="596.3" height="381.7"/>
				</defs>
				<clipPath id="SVGID_00000083067220699107915720000005383810085777025693_">
					<use xlink:href="#SVGID_00000162326610254296117220000017396434461610714267_"  overflow="visible"/>
				</clipPath>
				<g clip-path="url(#SVGID_00000083067220699107915720000005383810085777025693_)">
					<path fill="#D9E8FF" d="M-106.4,224.2c83.2,0.3,70.6,133.2,147.7,135.4c19.8,0.6,38.2-10.1,57.9-11.8c27.6-2.5,53.5,14,66,38.2
						c18.8,36.5,4.7,82.6-20.5,112.6C92,561.3-10.6,556-75.1,515.7c-48.8-30.5-83-83.4-90.8-140.4"/>
				</g>
			</g>
			<g>
				<defs>
					<rect id="SVGID_00000013152641744023094030000004905458216398316947_" width="596.3" height="381.7"/>
				</defs>
				<clipPath id="SVGID_00000037655856647957493280000013149844912322236587_">
					<use xlink:href="#SVGID_00000013152641744023094030000004905458216398316947_"  overflow="visible"/>
				</clipPath>
				<g clip-path="url(#SVGID_00000037655856647957493280000013149844912322236587_)">
					<g>
						<path fill="#8EAD28" d="M288.6,181.5L288.6,181.5c-8.6,0-15.6,6.7-15.6,14.9v26.1c0,8.2,7,14.9,15.6,14.9l0,0
							c8.6,0,15.6-6.7,15.6-14.9v-26.1C304.2,188.1,297.2,181.5,288.6,181.5z"/>
						<path fill="#BF692E" d="M299.2,218.1c0-0.9-0.7-1.6-1.6-1.6s-1.6,0.7-1.6,1.6c0,6-2.7,9.2-5.7,10.1v-16.5c0-1-0.8-1.8-1.8-1.8
							l0,0c-1,0-1.8,0.8-1.8,1.8v16.5c-3-0.9-5.7-4.2-5.7-10.1c0-0.9-0.7-1.6-1.6-1.6s-1.6,0.7-1.6,1.6c0,4.1,1.1,7.5,3.2,10
							c1.5,1.8,3.5,2.9,5.6,3.4v30h3.6v-30C295,230.5,299.2,226,299.2,218.1z"/>
					</g>
					<g>
						<path opacity="0.2" fill="#FFFFFF" enable-background="new    " d="M412.1,96.6c1,0,1.9,0.3,2.8,0.8
							c3.3-6.4,7.6-10.3,12.3-10.3c4.2,0,8.1,3.1,11.3,8.5c2.1-1.2,4.4-1.8,6.8-1.8c4.1,0,7.8,1.9,10.8,5c1.2-1.3,2.7-2.1,4.4-2.1
							c2,0,3.9,1.2,5.2,3.1H457h-1.7h-14.6h-7h-16.3h-3.5H407C408.3,97.7,410.1,96.6,412.1,96.6z"/>
						<path opacity="0.2" fill="#FFFFFF" enable-background="new    " d="M538.6,189.2c0.9,0,1.7,0.2,2.4,0.7c2.9-5.6,6.7-9,10.8-9
							c3.7,0,7.1,2.8,9.9,7.4c1.8-1,3.8-1.6,6-1.6c3.6,0,6.9,1.6,9.4,4.3c1.1-1.1,2.4-1.8,3.8-1.8c1.8,0,3.4,1,4.6,2.7h-7.6h-1.5
							h-12.8h-6.1h-14.3h-3.1h-6C535.2,190.2,536.8,189.2,538.6,189.2z"/>
						<path opacity="0.2" fill="#FFFFFF" enable-background="new    " d="M502.6,77.9c-0.9,0-1.7,0.2-2.4,0.7c-2.9-5.6-6.7-9-10.8-9
							c-3.7,0-7.1,2.8-9.9,7.4c-1.8-1-3.8-1.6-6-1.6c-3.6,0-6.9,1.6-9.4,4.3c-1.1-1.1-2.4-1.8-3.8-1.8c-1.8,0-3.4,1-4.6,2.7h7.6h1.5
							h12.8h6.1H498h3.1h6C506,78.9,504.3,77.9,502.6,77.9z"/>
						<path opacity="0.2" fill="#FFFFFF" enable-background="new    " d="M273.9,157.6c1.3,0,2.5,0.4,3.6,1
							c4.4-8.4,10-13.5,16.1-13.5c5.5,0,10.6,4.1,14.8,11.1c2.7-1.5,5.7-2.4,8.9-2.4c5.4,0,10.3,2.4,14.1,6.5
							c1.6-1.7,3.6-2.7,5.7-2.7c2.7,0,5.1,1.5,6.8,4h-11.4h-2.3h-19.1H302h-21.3h-4.6h-9C268.8,159.2,271.2,157.6,273.9,157.6z"/>
						<path opacity="0.2" fill="#FFFFFF" enable-background="new    " d="M356.2,126.8c0-1.2,1-2.2,2.2-2.2s2.2,1,2.2,2.2
							s-1,2.2-2.2,2.2S356.2,128,356.2,126.8z"/>
						<circle opacity="0.2" fill="#FFFFFF" enable-background="new    " cx="318" cy="82.4" r="2.7"/>
					</g>
					<g>
						<path opacity="0.2" fill="#FFFFFF" enable-background="new    " d="M584.7,66.7c-1.2,0-2.3,0.3-3.3,0.9
							c-4-7.6-9.1-12.3-14.7-12.3c-5,0-9.7,3.8-13.5,10.1c-2.5-1.4-5.2-2.2-8.1-2.2c-4.9,0-9.3,2.2-12.8,5.9
							c-1.5-1.5-3.3-2.5-5.2-2.5c-2.4,0-4.6,1.4-6.2,3.6h10.4h2.1h17.4h8.3h19.5h4.2h8.2C589.3,68,587.1,66.7,584.7,66.7z"/>
						<path opacity="0.2" fill="#FFFFFF" enable-background="new    " d="M546.6,150.4c-1.5,0-3,0.4-4.3,1.2
							c-5.2-10-11.9-16-19.2-16c-6.6,0-12.6,4.9-17.6,13.2c-3.2-1.8-6.8-2.8-10.6-2.8c-6.4,0-12.2,2.9-16.7,7.7
							c-1.9-2-4.3-3.2-6.8-3.2c-3.2,0-6,1.8-8.1,4.8h13.6h2.7h22.7h10.8h25.4h5.5h10.7C552.6,152.2,549.8,150.4,546.6,150.4z"/>
						
							<ellipse transform="matrix(0.989 -0.1482 0.1482 0.989 -9.6141 87.5823)" opacity="0.2" fill="#FFFFFF" enable-background="new    " cx="582.9" cy="108.3" rx="8.6" ry="8.6"/>
						<path opacity="0.2" fill="#FFFFFF" enable-background="new    " d="M497.7,102.9c0-1.8-1.4-3.2-3.2-3.2s-3.2,1.4-3.2,3.2
							c0,1.8,1.4,3.2,3.2,3.2S497.7,104.6,497.7,102.9z"/>
					</g>
					<g>
						<path fill="#799B34" d="M531.3,261.6H430.9l45.3-66.3c1.2-1.7,3.1-2.6,4.9-2.6c1.9,0,3.8,0.9,4.9,2.6L531.3,261.6z"/>
					</g>
					<g>
						<path fill="#587324" d="M460.3,261.6H300.5L372.3,153c1.9-2.9,5-4.3,8.1-4.3s6.2,1.4,8.1,4.3l71.7,108.5L460.3,261.6z"/>
					</g>
					<g>
						<path fill="#B0CE34" d="M574.7,225.4L574.7,225.4L574.7,225.4c0-0.7,0-1.3-0.1-2c0-0.2-0.1-0.5-0.1-0.7
							c-0.1-0.4-0.1-0.8-0.2-1.2c-0.1-0.3-0.1-0.6-0.2-0.9c-0.1-0.3-0.1-0.6-0.2-0.9c-0.1-0.3-0.2-0.7-0.3-1
							c-0.1-0.2-0.1-0.3-0.2-0.5c-0.7-2-1.7-3.8-3-5.5c2.4-0.6,3.6-2.7,3.6-2.7c-1.9-0.9-3.6-0.6-4.8-0.1c1.5-2.3,0.6-4.8,0.6-4.8
							c-2,0.9-2.9,2.3-3.3,3.6c-1.7-1.3-3.6-2.4-5.7-3.1c-0.1,0-0.3-0.1-0.4-0.1c-0.4-0.1-0.8-0.3-1.2-0.4c-0.2-0.1-0.4-0.1-0.7-0.2
							c-0.4-0.1-0.7-0.2-1.1-0.2c-0.3-0.1-0.6-0.1-0.8-0.1c-0.3,0-0.7-0.1-1-0.1c-0.4,0-0.7,0-1.1-0.1c-0.3,0-0.5,0-0.8,0
							c-11.6,0-20.9,9.4-20.9,20.9c0,11.6,9.4,20.9,20.9,20.9l0,0l0,0c0.1,0,0.1,0,0.2,0c0.7,0,1.3,0,1.9-0.1c0.3,0,0.5-0.1,0.8-0.1
							c8.5-1.2,15.3-7.5,17.4-15.7C574.5,228.8,574.7,227.2,574.7,225.4L574.7,225.4z"/>
						<path fill="#9E5726" d="M546.2,236.8c0.4-0.5,1.2-0.6,1.8-0.1l4.6,4v-5.6c0-0.7,0.6-1.2,1.2-1.2c0.7,0,1.2,0.6,1.2,1.2v1.9
							l1.6-1.4c0.5-0.4,1.3-0.4,1.8,0.1c0.2,0.2,0.3,0.5,0.3,0.8s-0.1,0.7-0.4,0.9l-3.2,2.8v19.9h-2.5v-16.2l-6.3-5.5
							c-0.3-0.2-0.4-0.6-0.4-0.9C545.9,237.3,546,237,546.2,236.8z"/>
					</g>
					<g>
						<path fill="#B0CE34" d="M485.7,260.1h-93.1l19.5-33.8l10.5-18.3l3.2-5.5c5.9-10.3,20.7-10.3,26.6,0l3.2,5.5L485.7,260.1z"/>
						<path fill="#B0CE34" d="M439.2,194.9v65.2h-46.5l33.2-57.6C428.8,197.4,434,194.9,439.2,194.9z"/>
						<path fill="#FFFFFF" d="M455.6,208.1c-1.7,1.2-3.8,1.9-6,1.9c-1.9,0-3.7-0.5-5.3-1.4c-1.5,0.9-3.3,1.4-5.3,1.4
							c-1.9,0-3.7-0.5-5.3-1.4c-1.5,0.9-3.3,1.4-5.3,1.4c-2.2,0-4.3-0.7-6-1.9l3.2-5.5c5.9-10.3,20.7-10.3,26.6,0L455.6,208.1z"/>
						<path fill="#FFFFFF" d="M439.2,194.9V210c-1.9,0-3.7-0.5-5.3-1.4c-1.5,0.9-3.3,1.4-5.3,1.4c-2.2,0-4.3-0.7-6-1.9l3.2-5.5
							C428.8,197.4,434,194.9,439.2,194.9z"/>
					</g>
					<g>
						<rect x="451.3" y="148" fill="#FFFFFF" width="2.7" height="7.6"/>
						<rect x="452.6" y="148" fill="#CECECE" width="1.4" height="7.6"/>
						<path fill="#FFFFFF" d="M457.9,261.5h-10.7l2.6-105.7c0-1.5,1.2-2.7,2.7-2.7s2.7,1.2,2.7,2.7L457.9,261.5z"/>
						<path fill="#EDEDED" d="M457.9,261.5h-5.3V153.1c1.5,0,2.7,1.2,2.7,2.7L457.9,261.5z"/>
					</g>
					<g>
						<rect x="390.8" y="175.4" fill="#FFFFFF" width="2.1" height="5.8"/>
						<rect x="391.8" y="175.4" fill="#CECECE" width="1" height="5.8"/>
						<path fill="#FFFFFF" d="M395.8,261.5h-8.1l2-80.1c0-1.1,0.9-2,2.1-2s2,0.9,2.1,2L395.8,261.5z"/>
						<path fill="#EDEDED" d="M395.8,261.5h-4v-82.1c1.1,0,2,0.9,2.1,2L395.8,261.5z"/>
					</g>
					<g>
						<rect x="507.8" y="193.7" fill="#FFFFFF" width="1.6" height="4.6"/>
						<path fill="#FFFFFF" d="M511.8,261.5h-6.4l1.6-63.1c0-0.9,0.7-1.6,1.6-1.6s1.6,0.7,1.6,1.6L511.8,261.5z"/>
						<path fill="#EDEDED" d="M511.8,261.5h-3.2v-64.7c0.9,0,1.6,0.7,1.6,1.6L511.8,261.5z"/>
					</g>
					<g>
						<path fill="#FFFFFF" d="M582.8,132.6c0,6.3-3.8,11.7-9.1,14c-0.1,0.1-0.3,0.1-0.4,0.2c-0.4,0.2-0.7,0.5-0.9,0.9
							c-0.3,0.4-0.5,0.9-0.6,1.5l-0.2,1.8c-0.7,0.2-1.5,0.4-2.2,0.5c-0.3,0-0.7,0.1-1,0.1c-0.2,0-0.5,0-0.8,0l0,0
							c-0.2,0-0.5,0-0.7,0s-0.4,0-0.6,0c-0.3,0-0.6-0.1-0.9-0.1l0,0c-0.6-0.1-1.2-0.3-1.8-0.4l-0.2-1.8c0,0,0,0,0-0.1
							c-0.1-0.5-0.3-1-0.6-1.4c-0.1-0.1-0.2-0.3-0.3-0.4l0,0l0,0l0,0c-0.2-0.2-0.4-0.3-0.6-0.5c-0.1-0.1-0.3-0.2-0.4-0.2
							c-0.1,0-0.2-0.1-0.3-0.1s-0.2-0.1-0.3-0.1c-0.7-0.4-1.5-0.8-2.1-1.3c-0.8-0.6-1.6-1.2-2.3-2l0,0c-2.5-2.7-4.1-6.3-4.2-10.3
							c0-1.4,0.2-2.8,0.5-4.2c0.6-2.3,1.7-4.3,3.2-6.1c0.3-0.4,0.7-0.7,1-1.1c0.5-0.5,1.1-0.9,1.6-1.4l0,0c0.8-0.6,1.7-1.1,2.7-1.5
							c0.5-0.2,1-0.4,1.4-0.6c0.2-0.1,0.4-0.1,0.5-0.2l0,0c0.8-0.2,1.5-0.4,2.3-0.5c0.1,0,0.2,0,0.3,0l0,0c0.4,0,0.8-0.1,1.1-0.1
							h0.1c0.1,0,0.2,0,0.3,0h0.1c0.5,0,0.9,0,1.4,0.1c0.1,0,0.2,0,0.3,0c0.8,0.1,1.6,0.3,2.3,0.5l0,0c2.4,0.7,4.5,1.9,6.3,3.6
							c2,1.9,3.6,4.4,4.3,7.2l0,0C582.6,129.9,582.8,131.2,582.8,132.6z"/>
						<path fill="#F0D628" d="M566.7,151.6c-0.1,0-0.2,0-0.3,0s-0.2,0-0.3,0c-0.3,0-0.6-0.1-0.9-0.1l0,0c-0.6-0.1-1.2-0.3-1.8-0.4
							l-0.2-1.8c0,0,0,0,0-0.1c-0.1-0.5-0.3-1-0.6-1.4c-0.1-0.1-0.2-0.3-0.3-0.4l0,0l0,0l0,0c-0.2-0.2-0.4-0.3-0.6-0.5
							c-0.1-0.1-0.3-0.2-0.4-0.2c0,0-0.1,0-0.1-0.1c-0.1-0.1-0.1-0.1-0.2-0.2c-2.6-7.5-5.7-20.7,1.7-28.3l0,0
							c0.2-0.1,0.4-0.1,0.5-0.2l0,0c0.8-0.2,1.5-0.4,2.3-0.5c0.1,0,0.2,0,0.3,0l0,0l0,0C565.8,117.6,559.8,128.7,566.7,151.6z"/>
						<path fill="#F0D628" d="M558.6,145.1L558.6,145.1c-3.8-2.7-6.4-7.2-6.5-12.3c0-1.4,0.2-2.8,0.5-4.2c0.7-2.8,2.2-5.2,4.3-7.2
							c0.5-0.5,1.1-0.9,1.6-1.4l0,0C558.3,120.5,550.3,130,558.6,145.1z"/>
						<path fill="#F0D628" d="M568.2,151.6L568.2,151.6c0.2,0,0.4,0,0.6,0c0.3,0,0.6-0.1,0.9-0.1l0,0c0.6-0.1,1.2-0.3,1.8-0.4
							l0.2-1.8c0,0,0,0,0-0.1c0.1-0.5,0.3-1,0.6-1.4c0.1-0.1,0.2-0.3,0.3-0.4l0,0l0,0l0,0c0.2-0.2,0.4-0.3,0.6-0.5
							c0.2-0.1,0.3-0.2,0.5-0.3c0.1-0.1,0.1-0.1,0.2-0.2c2.6-7.5,5.7-20.8-1.7-28.3c-0.2-0.1-0.4-0.1-0.5-0.2l0,0
							c-0.8-0.2-1.5-0.4-2.3-0.5c-0.1,0-0.2,0-0.3,0l0,0C569,117.3,575.2,128.5,568.2,151.6z"/>
						<path fill="#F0D628" d="M576.4,145.1c3.8-2.7,6.4-7.2,6.4-12.3c0-1.4-0.2-2.8-0.5-4.2c-0.7-2.8-2.3-5.2-4.3-7.2
							c-0.5-0.5-1.1-0.9-1.6-1.4C576.5,120.3,584.8,129.8,576.4,145.1z"/>
						<path fill="#FFFFFF" d="M571.2,151.7h-7.6c-0.3,0-0.5-0.2-0.5-0.5l0,0c0-0.3,0.2-0.5,0.5-0.5h7.6c0.3,0,0.5,0.2,0.5,0.5l0,0
							C571.7,151.5,571.5,151.7,571.2,151.7z"/>
						<path fill="#3E7B7A" d="M582,138.2c-0.2-0.1-5.4-2.1-14.5-2.1c-9,0-14.5,2.1-14.5,2.1c-0.2,0.1-0.3,0.3-0.2,0.4
							c0.1,0.1,0.2,0.2,0.3,0.2h0.1c0,0,0.1,0,0.1-0.1l11.5,20.8h-0.4c-0.1,0-0.1,0.1-0.1,0.1l0,0c0,0.1,0.1,0.1,0.1,0.1h0.2v1.9
							c0,1.3,1,2.3,2.3,2.3h1.1c0.4,0,0.7-0.1,1-0.2c0.7-0.4,1.3-1.2,1.3-2.1v-1.9h0.2c0.1,0,0.1-0.1,0.1-0.1l0,0
							c0-0.1-0.1-0.1-0.1-0.1h-0.4l11.5-20.8c0.1,0,0.2,0.1,0.2,0.1c0.2,0.1,0.4,0,0.4-0.2C582.2,138.5,582.2,138.3,582,138.2z
							 M567.3,159.6h-0.9l-6.2-22.3c2-0.3,4.4-0.5,7.2-0.5L567.3,159.6z M567.6,159.6v-22.8c2.7,0,5.1,0.2,7.1,0.5l-6.2,22.3H567.6z
							 M553.6,138.7c0.8-0.3,3-0.9,6.3-1.4l6.2,22.3h-1L553.6,138.7z M569.8,159.6h-1l6.2-22.3c3.3,0.5,5.5,1.1,6.3,1.4L569.8,159.6
							z"/>
					</g>
					<g>
						<path fill="#A6C933" d="M366.1,98.7c0,9.1-5.5,17-13.3,20.4c-0.2,0.1-0.4,0.2-0.6,0.3c-0.5,0.3-1,0.8-1.3,1.2
							c-0.5,0.6-0.8,1.4-0.9,2.2l-0.3,2.6c-1.1,0.3-2.2,0.6-3.2,0.7c-0.5,0.1-1,0.1-1.5,0.1c-0.4,0-0.7,0-1.1,0l0,0
							c-0.4,0-0.7,0-1.1,0c-0.3,0-0.5,0-0.8-0.1c-0.4-0.1-0.9-0.1-1.3-0.2l0,0c-0.9-0.2-1.8-0.4-2.6-0.6l-0.3-2.6v-0.1
							c-0.1-0.8-0.4-1.5-0.8-2.1c-0.1-0.2-0.3-0.4-0.5-0.6l0,0l0,0l0,0c-0.3-0.3-0.5-0.5-0.8-0.7c-0.2-0.1-0.4-0.2-0.6-0.3
							c-0.1-0.1-0.3-0.1-0.4-0.2s-0.3-0.1-0.4-0.2c-1.1-0.5-2.1-1.1-3.1-1.8c-1.2-0.8-2.3-1.8-3.3-2.9l0,0c-3.7-3.9-6-9.2-6.1-15
							c0-2.1,0.2-4.1,0.8-6.1c0.9-3.3,2.5-6.3,4.7-8.8c0.5-0.6,1-1.1,1.5-1.6c0.7-0.7,1.6-1.4,2.4-2l0,0c1.2-0.9,2.5-1.6,3.9-2.2
							c0.7-0.3,1.4-0.6,2.1-0.8c0.3-0.1,0.5-0.2,0.8-0.2l0,0c1.1-0.3,2.2-0.6,3.4-0.7c0.2,0,0.3,0,0.5-0.1l0,0
							c0.5-0.1,1.1-0.1,1.7-0.1h0.1c0.1,0,0.3,0,0.4,0s0.1,0,0.2,0c0.7,0,1.4,0,2,0.1c0.2,0,0.3,0,0.5,0.1c1.2,0.1,2.3,0.4,3.4,0.7
							l0,0c3.5,1,6.6,2.8,9.2,5.2c3,2.8,5.2,6.4,6.3,10.5l0,0C365.9,94.8,366.1,96.7,366.1,98.7z"/>
						<path fill="#8EAD28" d="M342.8,126.4c-0.1,0-0.3,0-0.4,0s-0.3,0-0.4,0c-0.4-0.1-0.9-0.1-1.3-0.2l0,0c-0.9-0.2-1.8-0.4-2.6-0.6
							l-0.3-2.6v-0.1c-0.1-0.8-0.4-1.5-0.8-2.1c-0.1-0.2-0.3-0.4-0.5-0.6l0,0l0,0l0,0c-0.3-0.3-0.5-0.5-0.8-0.7
							c-0.2-0.1-0.4-0.2-0.6-0.3c-0.1,0-0.1-0.1-0.2-0.1c-0.1-0.1-0.2-0.2-0.3-0.3c-3.8-10.9-8.3-30.2,2.5-41.2l0,0
							c0.3-0.1,0.5-0.2,0.8-0.2l0,0c1.1-0.3,2.2-0.6,3.4-0.7c0.2,0,0.3,0,0.5-0.1l0,0l0,0C341.4,76.9,332.7,93.1,342.8,126.4z"/>
						<path fill="#8EAD28" d="M331,116.9L331,116.9c-5.6-4-9.3-10.5-9.4-17.8c0-2.1,0.2-4.1,0.8-6.1c1.1-4,3.3-7.6,6.2-10.4
							c0.7-0.7,1.6-1.4,2.4-2l0,0C330.4,81.2,318.8,94.9,331,116.9z"/>
						<path fill="#8EAD28" d="M345,126.4L345,126.4c0.3,0,0.5,0,0.8-0.1c0.4-0.1,0.9-0.1,1.3-0.2l0,0c0.9-0.2,1.8-0.4,2.6-0.6
							l0.3-2.6v-0.1c0.1-0.8,0.4-1.5,0.8-2.1c0.1-0.2,0.3-0.4,0.5-0.6l0,0l0,0l0,0c0.3-0.3,0.5-0.5,0.8-0.7c0.2-0.2,0.5-0.3,0.8-0.4
							c0.1-0.1,0.2-0.2,0.3-0.3c3.8-10.9,8.3-30.2-2.5-41.2c-0.3-0.1-0.5-0.2-0.8-0.2l0,0c-1.1-0.3-2.2-0.6-3.4-0.7
							c-0.2,0-0.3,0-0.5-0.1l0,0C346.1,76.5,355.2,92.8,345,126.4z"/>
						<path fill="#8EAD28" d="M356.8,116.9c5.6-4,9.3-10.5,9.4-17.8c0-2.1-0.2-4.1-0.8-6.1c-1.1-4-3.3-7.6-6.2-10.4
							c-0.8-0.7-1.6-1.4-2.4-2C357.1,80.9,369.1,94.7,356.8,116.9z"/>
						<path fill="#FFFFFF" d="M349.4,126.6h-11.1c-0.4,0-0.7-0.3-0.7-0.7l0,0c0-0.4,0.3-0.7,0.7-0.7h11.1c0.4,0,0.7,0.3,0.7,0.7l0,0
							C350,126.3,349.7,126.6,349.4,126.6z"/>
						<path fill="#3E7B7A" d="M365,107c-0.3-0.1-7.8-3.1-21.1-3.1c-13.1,0-21,3.1-21.1,3.1c-0.2,0.1-0.4,0.4-0.3,0.6
							s0.3,0.3,0.5,0.3c0.1,0,0.1,0,0.2,0c0,0,0.1,0,0.2-0.1L340,138h-0.5c-0.1,0-0.2,0.1-0.2,0.2l0,0c0,0.1,0.1,0.2,0.2,0.2h0.2
							v2.7c0,1.8,1.5,3.3,3.3,3.3h1.7c0.5,0,1.1-0.1,1.5-0.4c1.1-0.5,1.8-1.7,1.8-3v-2.7h0.2c0.1,0,0.2-0.1,0.2-0.2l0,0
							c0-0.1-0.1-0.2-0.2-0.2h-0.6l16.7-30.3c0.2,0.1,0.3,0.1,0.3,0.1c0.2,0.1,0.5,0,0.6-0.3C365.3,107.3,365.2,107.1,365,107z
							 M343.7,138h-1.3l-9.1-32.5c2.9-0.4,6.4-0.7,10.4-0.7V138z M344.1,138v-33.2c4,0,7.5,0.3,10.4,0.7l-9.1,32.5H344.1z
							 M323.7,107.7c1.2-0.4,4.4-1.4,9.2-2.1L342,138h-1.5L323.7,107.7z M347.2,138h-1.5l9.1-32.4c4.8,0.7,7.9,1.6,9.2,2.1
							L347.2,138z"/>
					</g>
					<g>
						<g>
							<rect x="321.6" y="252.3" fill="#FFFFFF" width="3.7" height="7.2"/>
							<rect x="323.4" y="252.3" fill="#DDDDDD" width="1.8" height="7.2"/>
							<rect x="305.4" y="231.1" fill="#C9F3F3" width="36.3" height="24.7"/>
							<rect x="306.7" y="232.3" fill="#309AEE" width="10.3" height="10.3"/>
							<rect x="318.3" y="232.3" fill="#309AEE" width="10.3" height="10.3"/>
							<rect x="329.9" y="232.3" fill="#309AEE" width="10.3" height="10.3"/>
							<rect x="306.7" y="244" fill="#309AEE" width="10.3" height="10.3"/>
							<rect x="318.3" y="244" fill="#309AEE" width="10.3" height="10.3"/>
							<rect x="329.9" y="244" fill="#309AEE" width="10.3" height="10.3"/>
							<polygon fill="#C9F3F3" points="325.6,255.7 305.4,255.7 305.4,231.1 321,231.1 							"/>
							<rect x="320.8" y="259.5" fill="#DDDDDD" width="5.2" height="0.6"/>
							<rect x="323.4" y="259.5" fill="#BCBCBC" width="2.6" height="0.6"/>
						</g>
						<g>
							<rect x="365.8" y="252.3" fill="#FFFFFF" width="3.7" height="7.2"/>
							<rect x="367.6" y="252.3" fill="#DDDDDD" width="1.8" height="7.2"/>
							<rect x="349.6" y="231.1" fill="#C9F3F3" width="36.3" height="24.7"/>
							<rect x="350.9" y="232.3" fill="#309AEE" width="10.3" height="10.3"/>
							<rect x="362.5" y="232.3" fill="#309AEE" width="10.3" height="10.3"/>
							<rect x="374.1" y="232.3" fill="#309AEE" width="10.3" height="10.3"/>
							<rect x="350.9" y="244" fill="#309AEE" width="10.3" height="10.3"/>
							<rect x="362.5" y="244" fill="#427880" width="10.3" height="10.3"/>
							<rect x="374.1" y="244" fill="#309AEE" width="10.3" height="10.3"/>
							<polygon fill="#C9F3F3" points="369.8,255.7 349.6,255.7 349.6,231.1 365.1,231.1 							"/>
							<rect x="365" y="259.5" fill="#DDDDDD" width="5.2" height="0.6"/>
							<rect x="367.6" y="259.5" fill="#BCBCBC" width="2.6" height="0.6"/>
						</g>
					</g>
					<g>
						<g>
							<path fill="#587324" d="M553.7,258.3c0,0.6-0.1,1.2-0.2,1.7h-35.9c-0.1-0.6-0.2-1.1-0.2-1.7c0-1.3,0.3-2.5,0.9-3.5
								c1.2-2.1,3.5-3.5,6.1-3.5c1.1,0,2.1,0.2,3,0.7c1-4,4.6-7,9-7c2.5,0,4.9,1,6.5,2.7c1,1,1.9,2.3,2.3,3.8c0.5-0.1,1-0.2,1.5-0.2
								C550.6,251.3,553.7,254.5,553.7,258.3z"/>
							<path fill="#B0CE34" d="M530,258.9c0,0.4-0.1,0.8-0.2,1.2h-25c-0.1-0.4-0.2-0.8-0.2-1.2c0-0.9,0.2-1.7,0.7-2.4
								c0.8-1.5,2.4-2.5,4.2-2.5c0.8,0,1.5,0.2,2.1,0.5c0.7-2.8,3.2-4.9,6.2-4.9c1.8,0,3.4,0.7,4.5,1.9c0.7,0.7,1.3,1.6,1.6,2.6
								c0.3-0.1,0.7-0.1,1-0.1C527.8,254,530,256.2,530,258.9z"/>
						</g>
						<g>
							<path fill="#81A317" d="M482.7,258.5c0,0.4,0,0.8-0.1,1.2h-45.2c-0.8-1.4-1.3-3-1.3-4.8c0-5.3,4.3-9.6,9.6-9.6
								c2.3,0,4.4,0.8,6.1,2.2c2.1-3.8,6.1-6.3,10.7-6.3c6.6,0,12,5.3,12.2,11.9c0.7-0.3,1.4-0.4,2.1-0.4
								C480.1,252.7,482.7,255.3,482.7,258.5z"/>
							<path fill="#B0CE34" d="M490.7,252.7c-0.8,0-1.5,0.1-2.1,0.4c-0.2-6.6-5.6-11.9-12.2-11.9c-4.6,0-8.6,2.6-10.7,6.3
								c-1.7-1.4-3.8-2.2-6.1-2.2c-0.5,0-1,0-1.4,0.1c0.4-1.7,0.2-3.9-1.9-6c0,0-1.8,2.1-1.6,4.8c-1-1-2.5-1.7-4.7-1.7
								c0,0,0.3,3.6,3.3,5.1c-2,1.8-3.3,4.4-3.3,7.2c0,1.7,0.5,3.4,1.3,4.8h45.2c0.1-0.4,0.1-0.8,0.1-1.2
								C496.5,255.3,493.9,252.7,490.7,252.7z"/>
							<path fill="#587324" d="M475.9,259c0,0.3,0,0.5-0.1,0.7H449c-0.5-0.8-0.8-1.8-0.8-2.8c0-3.2,2.6-5.7,5.7-5.7
								c1.4,0,2.6,0.5,3.6,1.3c1.2-2.2,3.6-3.8,6.4-3.8c3.9,0,7.1,3.1,7.3,7.1c0.4-0.1,0.8-0.2,1.3-0.2
								C474.4,255.5,475.9,257.1,475.9,259z"/>
							<path fill="#587324" d="M439.8,253.2c0,0,0.1,0.9,0.8,1.6c-0.5,0-1.1,0.2-1.6,0.6c0,0,1.8,2.1,4.4,0.3l0,0l0,0
								C443.4,255.7,442.6,253,439.8,253.2z"/>
							<path fill="#587324" d="M447.5,247.2c0,0-0.4,0.5-0.4,1.2c-0.3-0.2-0.6-0.4-1.1-0.5c0,0-0.2,2,1.9,2.4l0,0l0,0
								C447.9,250.2,448.9,248.6,447.5,247.2z"/>
							<path fill="#B0CE34" d="M466.2,243.7c0,0-0.9,0.2-1.5,0.9c-0.1-0.5-0.3-1-0.7-1.6c0,0-2,2,0,4.4l0,0l0,0
								C463.9,247.4,466.6,246.4,466.2,243.7z"/>
							<path fill="#81A317" d="M474.6,248.8c0,0-0.6,0.6-0.9,1.6c-0.3-0.4-0.8-0.8-1.4-1c0,0-0.7,2.7,2.2,3.8l0,0l0,0
								C474.5,253.2,476.3,251,474.6,248.8z"/>
							<path fill="#81A317" d="M480.9,246c0,0-0.6,0.2-1.1,0.8c-0.1-0.4-0.3-0.7-0.7-1.1c0,0-1.3,1.6,0.3,3.2l0,0l0,0
								C479.5,248.9,481.4,248,480.9,246z"/>
							<path fill="#81A317" d="M490.5,251.8c0,0-0.7-0.1-1.3,0.3c0.1-0.4,0-0.8-0.2-1.3c0,0-1.9,0.9-1,3.1l0,0l0,0
								C488,253.9,490.1,253.8,490.5,251.8z"/>
						</g>
						<g>
							<path fill="#B0CE34" d="M385.2,249.1c-0.7,0-1.3,0.1-1.9,0.2c-0.6-1.9-1.7-3.6-3-4.9c-2.2-2.2-5.2-3.5-8.6-3.5
								c-1.9,0-3.7,0.4-5.3,1.2c0-1.2-0.4-2.6-1.7-3.8c0,0-2,2.3-0.9,5.2c-1.2-0.8-2.8-1.4-5-0.6c0,0,0.9,2.1,3.2,2.8
								c-0.4,0.5-0.8,1.1-1.1,1.7c-0.2-0.1-0.5-0.1-0.8-0.1c-1.2,0-2.1,0.9-2.2,2.1c-0.6-0.1-1.3-0.2-2-0.2c-3.4,0-6.4,1.9-8,4.6
								c-0.8,1.4-1.2,2.9-1.2,4.6c0,0.8,0.1,1.6,0.3,2.3h47.1c0.2-0.7,0.3-1.5,0.3-2.3C394.4,253.2,390.3,249.1,385.2,249.1z"/>
							<path fill="#587324" d="M401.4,258.8c0,0.6-0.1,1.3-0.2,1.8h-37.8c-0.2-0.6-0.2-1.2-0.2-1.8c0-1.3,0.4-2.6,1-3.7
								c1.3-2.2,3.7-3.7,6.4-3.7c1.1,0,2.2,0.3,3.2,0.7c1.1-4.2,4.9-7.3,9.4-7.3c2.7,0,5.1,1.1,6.9,2.8c1.1,1.1,1.9,2.4,2.4,4
								c0.5-0.1,1-0.2,1.6-0.2C398.1,251.4,401.4,254.7,401.4,258.8z"/>
							<path fill="#8EAD28" d="M379.6,259.5c0,0.4-0.1,0.8-0.2,1.2h-23.8c-0.1-0.4-0.2-0.8-0.2-1.2c0-0.8,0.2-1.6,0.6-2.3
								c0.8-1.4,2.3-2.3,4-2.3c0.7,0,1.4,0.2,2,0.5c0.7-2.7,3.1-4.6,5.9-4.6c1.7,0,3.2,0.7,4.3,1.8c0.7,0.7,1.2,1.5,1.5,2.5
								c0.3-0.1,0.6-0.1,1-0.1C377.5,254.8,379.6,256.9,379.6,259.5z"/>
							<path fill="#8EAD28" d="M355.1,251c0,0-1.4,1.3-1.2,3.2c-0.6-0.8-1.5-1.4-3-1.5c0,0,0,3.5,4,3.9l0,0l0,0
								C354.9,256.6,357.4,253.9,355.1,251z"/>
							<path fill="#8EAD28" d="M374.5,239c0,0-1.2,0.4-1.6,1.6c-0.1-0.6-0.5-1.3-1.4-1.8c0,0-1,2.1,1.4,3.5l0,0l0,0
								C372.8,242.3,375.1,241.4,374.5,239z"/>
							<path fill="#8EAD28" d="M391.3,245.8c0,0-1.2-0.4-2.3,0.4c0.2-0.6,0.3-1.4-0.1-2.3c0,0-2,1.2-0.9,3.6l0,0l0,0
								C387.9,247.6,390.4,248.1,391.3,245.8z"/>
							<path fill="#8EAD28" d="M382.7,248.7c0,0-0.9,0.8-0.8,2.2c-0.4-0.5-1-1-2-1c0,0,0,2.3,2.7,2.6l0,0l0,0
								C382.5,252.5,384.2,250.7,382.7,248.7z"/>
							<path fill="#8EAD28" d="M379,253.3c0,0-1.3,0.1-2,1.1c0-0.6-0.2-1.4-0.9-2.1c0,0-1.5,1.8,0.4,3.7l0,0l0,0
								C376.5,256.1,379,255.7,379,253.3z"/>
							<path fill="#8EAD28" d="M395.1,250.5c0,0-0.7,0.1-1.1,0.8c0-0.4-0.2-0.8-0.7-1.1c0,0-0.7,1.1,0.5,2.1l0,0l0,0
								C393.9,252.3,395.2,251.9,395.1,250.5z"/>
							<path fill="#8EAD28" d="M364.5,246.9c0,0-0.7,1.1-0.2,2.3c-0.5-0.4-1.3-0.6-2.2-0.4c0,0,0.6,2.2,3.3,1.8l0,0l0,0
								C365.4,250.5,366.5,248.3,364.5,246.9z"/>
						</g>
					</g>
					<g opacity="0.67">
						<path fill="#FFFFFF" d="M340.2,160.6c-0.7,0-1.3,0.2-1.8,0.5c-0.5-1.6-1.7-2.9-3.2-3.5c0.6-0.9,0.9-1.9,0.9-3.1
							c0-3.2-2.6-5.7-5.7-5.7c-2.1,0-4,1.2-5,2.9c-1-1.7-2.9-2.9-5.1-2.9c-3.2,0-5.8,2.5-5.9,5.7c-0.1,0-0.2,0-0.3,0
							c-3.8,0-7,3.1-7,7c0,0.6,0.1,1.1,0.2,1.7h36.2C343.2,161.7,341.8,160.6,340.2,160.6z"/>
						<path fill="#FFFFFF" d="M548.1,119.7H487c-0.2-0.9-0.3-1.8-0.3-2.8c0-6.5,5.3-11.7,11.8-11.7c2.4,0,4.6,0.7,6.4,1.9
							c2.4-2.6,5.8-4.3,9.6-4.3c3,0,5.9,1.1,8.1,2.8c0.6-2.6,2.9-4.5,5.7-4.5c3.3,0,5.9,2.6,5.9,5.9c0,1.1-0.3,2.2-0.9,3
							c2.9,0.9,5.3,3.2,6.2,6.2c0.9-0.5,1.9-0.8,3-0.8C545.1,115.4,547.4,117.2,548.1,119.7z"/>
						<path fill="#FFFFFF" d="M609.4,91h-38.8c-0.1-0.6-0.2-1.2-0.2-1.8c0-4.1,3.3-7.5,7.5-7.5c1.5,0,2.9,0.4,4.1,1.2
							c1.5-1.7,3.7-2.7,6.1-2.7c1.9,0,3.7,0.7,5.1,1.8c0.4-1.6,1.9-2.9,3.6-2.9c2.1,0,3.7,1.7,3.7,3.7c0,0.7-0.2,1.4-0.5,1.9
							c1.9,0.6,3.3,2.1,3.9,3.9c0.6-0.3,1.2-0.5,1.9-0.5C607.5,88.3,609,89.4,609.4,91z"/>
						<path fill="#FFFFFF" d="M431.2,128.7c-0.6,0-1.1,0.2-1.6,0.4c-0.4-1.4-1.5-2.5-2.8-3.1c0.5-0.8,0.8-1.7,0.8-2.7
							c0-2.8-2.2-5-5-5c-1.9,0-3.5,1-4.4,2.5c-0.9-1.5-2.6-2.5-4.5-2.5c-2.8,0-5.1,2.2-5.2,5c-0.1,0-0.2,0-0.2,0
							c-3.4,0-6.1,2.7-6.1,6.1c0,0.5,0.1,1,0.2,1.5h31.8C433.8,129.6,432.6,128.7,431.2,128.7z"/>
						<path fill="#FFFFFF" d="M468.2,57.9c-0.6,0-1.1,0.2-1.6,0.4c-0.4-1.4-1.5-2.5-2.8-3.1c0.5-0.8,0.8-1.7,0.8-2.7
							c0-2.8-2.2-5-5-5c-1.9,0-3.5,1-4.4,2.5c-0.9-1.5-2.6-2.5-4.5-2.5c-2.8,0-5.1,2.2-5.2,5c-0.1,0-0.2,0-0.2,0
							c-3.4,0-6.1,2.7-6.1,6.1c0,0.5,0.1,1,0.2,1.5h31.8C470.8,58.8,469.6,57.9,468.2,57.9z"/>
					</g>
					<g>
						<path fill="#70532F" d="M584.9,270.6c0,2.9-1.2,5.4-3,7.3c-1.9,1.9-4.5,3-7.3,3H266c-5.7,0-10.3-4.6-10.3-10.3
							c0-0.2,0-0.3,0-0.5c0.1-2.7,1.2-5.1,3-6.9c1.9-1.9,4.5-3,7.3-3h308.6c5.6,0,10.1,4.4,10.3,9.9
							C584.9,270.3,584.9,270.5,584.9,270.6z"/>
						<path fill="#70532F" d="M584.9,270.6c0,2.9-1.2,5.4-3,7.3c-1.9,1.9-4.5,3-7.3,3H266c-5.7,0-10.3-4.6-10.3-10.3
							c0-0.2,0-0.3,0-0.5c0.1-2.7,1.2-5.1,3-6.9c1.9-1.9,4.5-3,7.3-3h308.6c5.6,0,10.1,4.4,10.3,9.9
							C584.9,270.3,584.9,270.5,584.9,270.6z"/>
						<circle fill="#604222" cx="403.1" cy="270.1" r="5.1"/>
						<circle fill="#604222" cx="307.7" cy="273.6" r="3.5"/>
						<path fill="#604222" d="M364.8,267.7c0,1.9-1.6,3.5-3.5,3.5s-3.5-1.6-3.5-3.5s1.6-3.5,3.5-3.5
							C363.2,264.2,364.8,265.7,364.8,267.7z"/>
						<circle fill="#604222" cx="281.3" cy="266" r="3.5"/>
						<path fill="#604222" d="M322.1,268.3c0,1-0.8,1.8-1.8,1.8s-1.8-0.8-1.8-1.8s0.8-1.8,1.8-1.8
							C321.3,266.5,322.1,267.3,322.1,268.3z"/>
						<path fill="#604222" d="M349.1,278c0,1.2-1,2.2-2.2,2.2s-2.2-1-2.2-2.2s1-2.2,2.2-2.2S349.1,276.8,349.1,278z"/>
						<path fill="#604222" d="M268.1,272c0,1.2-1,2.2-2.2,2.2s-2.2-1-2.2-2.2s1-2.2,2.2-2.2S268.1,270.8,268.1,272z"/>
						<path fill="#604222" d="M335.1,267.9c0,1.2-1,2.2-2.2,2.2s-2.2-1-2.2-2.2s1-2.2,2.2-2.2C334.1,265.6,335.1,266.6,335.1,267.9z
							"/>
						<path fill="#604222" d="M536.1,272c0,2.8-2.3,5.1-5.1,5.1s-5.1-2.3-5.1-5.1c0-2.8,2.3-5.1,5.1-5.1S536.1,269.2,536.1,272z"/>
						<circle fill="#604222" cx="555.2" cy="270.1" r="5.1"/>
						<path fill="#604222" d="M463.2,273.6c0,1.9-1.6,3.5-3.5,3.5s-3.5-1.6-3.5-3.5s1.6-3.5,3.5-3.5S463.2,271.7,463.2,273.6z"/>
						<path fill="#604222" d="M436.8,266c0,1.9-1.6,3.5-3.5,3.5s-3.5-1.6-3.5-3.5s1.6-3.5,3.5-3.5C435.3,262.5,436.8,264,436.8,266z
							"/>
						<path fill="#604222" d="M393.6,275.9c0,1.9-1.6,3.5-3.5,3.5s-3.5-1.6-3.5-3.5s1.6-3.5,3.5-3.5S393.6,273.9,393.6,275.9z"/>
						<path fill="#604222" d="M482.8,271.2c0,1.2-1,2.2-2.2,2.2s-2.2-1-2.2-2.2s1-2.2,2.2-2.2C481.8,268.9,482.8,269.9,482.8,271.2z
							"/>
						<path fill="#604222" d="M504.6,275.2c0,1.2-1,2.2-2.2,2.2s-2.2-1-2.2-2.2s1-2.2,2.2-2.2S504.6,273.9,504.6,275.2z"/>
						<path fill="#604222" d="M576.1,267.9c0,1.2-1,2.2-2.2,2.2s-2.2-1-2.2-2.2s1-2.2,2.2-2.2C575.1,265.6,576.1,266.6,576.1,267.9z
							"/>
						<path fill="#604222" d="M423.1,275.9c0,1.2-1,2.2-2.2,2.2s-2.2-1-2.2-2.2s1-2.2,2.2-2.2C422.1,273.6,423.1,274.6,423.1,275.9z
							"/>
						<circle fill="#604222" cx="484.9" cy="267.9" r="2.2"/>
						<path fill="#604222" d="M546.7,276.5c0,1.2-1,2.2-2.2,2.2s-2.2-1-2.2-2.2s1-2.2,2.2-2.2C545.7,274.2,546.7,275.2,546.7,276.5z
							"/>
						<path fill="#8EAD28" d="M585.1,269.6H255.9c0.1-2.7,1.2-5.1,3-6.9c1.9-1.9,4.5-3,7.3-3h308.6
							C580.3,259.8,584.8,264.1,585.1,269.6z"/>
						<g>
							<g>
								<defs>
									<path id="SVGID_00000109000018672042968660000003351097020232003210_" d="M255.7,270.2c0,0.1,0,0.3,0,0.5
										c0,5.7,4.6,10.3,10.3,10.3h308.6c2.9,0,5.4-1.2,7.3-3c1.9-1.9,3-4.4,3-7.3c0-0.2,0-0.3,0-0.5H255.7z"/>
								</defs>
								<clipPath id="SVGID_00000037677552986306096680000012096231417594109337_">
									<use xlink:href="#SVGID_00000109000018672042968660000003351097020232003210_"  overflow="visible"/>
								</clipPath>
								<path clip-path="url(#SVGID_00000037677552986306096680000012096231417594109337_)" fill="#604222" d="M294.4,278.4
									c0,2.8-2.3,5.1-5.1,5.1c-2.8,0-5.1-2.3-5.1-5.1c0-2.8,2.3-5.1,5.1-5.1S294.4,275.5,294.4,278.4z"/>
							</g>
							<g>
								<defs>
									<path id="SVGID_00000059302042062749764770000006835967175098617014_" d="M255.7,270.2c0,0.1,0,0.3,0,0.5
										c0,5.7,4.6,10.3,10.3,10.3h308.6c2.9,0,5.4-1.2,7.3-3c1.9-1.9,3-4.4,3-7.3c0-0.2,0-0.3,0-0.5H255.7z"/>
								</defs>
								<clipPath id="SVGID_00000079478674481033318820000015246590035731854478_">
									<use xlink:href="#SVGID_00000059302042062749764770000006835967175098617014_"  overflow="visible"/>
								</clipPath>
								<path clip-path="url(#SVGID_00000079478674481033318820000015246590035731854478_)" fill="#604222" d="M371.5,278.4
									c0,2.8-2.3,5.1-5.1,5.1c-2.8,0-5.1-2.3-5.1-5.1c0-2.8,2.3-5.1,5.1-5.1S371.5,275.5,371.5,278.4z"/>
							</g>
							<g>
								<defs>
									<path id="SVGID_00000173157009261057401140000017180989972577190814_" d="M255.7,270.2c0,0.1,0,0.3,0,0.5
										c0,5.7,4.6,10.3,10.3,10.3h308.6c2.9,0,5.4-1.2,7.3-3c1.9-1.9,3-4.4,3-7.3c0-0.2,0-0.3,0-0.5H255.7z"/>
								</defs>
								<clipPath id="SVGID_00000064350703246878736070000001939894507790401430_">
									<use xlink:href="#SVGID_00000173157009261057401140000017180989972577190814_"  overflow="visible"/>
								</clipPath>
								<path clip-path="url(#SVGID_00000064350703246878736070000001939894507790401430_)" fill="#604222" d="M333.1,280.9
									c0,2.4-2,4.4-4.4,4.4s-4.4-2-4.4-4.4s2-4.4,4.4-4.4S333.1,278.4,333.1,280.9z"/>
							</g>
							<g>
								<defs>
									<path id="SVGID_00000047750798096711285470000003478581001764658077_" d="M255.7,270.2c0,0.1,0,0.3,0,0.5
										c0,5.7,4.6,10.3,10.3,10.3h308.6c2.9,0,5.4-1.2,7.3-3c1.9-1.9,3-4.4,3-7.3c0-0.2,0-0.3,0-0.5H255.7z"/>
								</defs>
								<clipPath id="SVGID_00000021104978864715500370000004086910150139026079_">
									<use xlink:href="#SVGID_00000047750798096711285470000003478581001764658077_"  overflow="visible"/>
								</clipPath>
								<path clip-path="url(#SVGID_00000021104978864715500370000004086910150139026079_)" fill="#604222" d="M446.4,278.4
									c0,2.8-2.3,5.1-5.1,5.1c-2.8,0-5.1-2.3-5.1-5.1c0-2.8,2.3-5.1,5.1-5.1S446.4,275.5,446.4,278.4z"/>
							</g>
							<g>
								<defs>
									<path id="SVGID_00000058552487167382601820000010002318883231735716_" d="M255.7,270.2c0,0.1,0,0.3,0,0.5
										c0,5.7,4.6,10.3,10.3,10.3h308.6c2.9,0,5.4-1.2,7.3-3c1.9-1.9,3-4.4,3-7.3c0-0.2,0-0.3,0-0.5H255.7z"/>
								</defs>
								<clipPath id="SVGID_00000133512351768297039180000011639073599113715112_">
									<use xlink:href="#SVGID_00000058552487167382601820000010002318883231735716_"  overflow="visible"/>
								</clipPath>
								<path clip-path="url(#SVGID_00000133512351768297039180000011639073599113715112_)" fill="#604222" d="M484.9,280.7
									c0,2.4-1.9,4.3-4.3,4.3s-4.3-1.9-4.3-4.3s1.9-4.3,4.3-4.3C482.9,276.5,484.9,278.4,484.9,280.7z"/>
							</g>
							<g>
								<defs>
									<path id="SVGID_00000040573929764782199130000016078502361185223322_" d="M255.7,270.2c0,0.1,0,0.3,0,0.5
										c0,5.7,4.6,10.3,10.3,10.3h308.6c2.9,0,5.4-1.2,7.3-3c1.9-1.9,3-4.4,3-7.3c0-0.2,0-0.3,0-0.5H255.7z"/>
								</defs>
								<clipPath id="SVGID_00000167388123470889914420000005662748246139587244_">
									<use xlink:href="#SVGID_00000040573929764782199130000016078502361185223322_"  overflow="visible"/>
								</clipPath>
								<path clip-path="url(#SVGID_00000167388123470889914420000005662748246139587244_)" fill="#604222" d="M579,279.7
									c0,2.8-2.3,5.1-5.1,5.1s-5.1-2.3-5.1-5.1c0-2.8,2.3-5.1,5.1-5.1S579,276.9,579,279.7z"/>
							</g>
							<g>
								<defs>
									<path id="SVGID_00000054963739209353197360000006577680772027280809_" d="M255.7,270.2c0,0.1,0,0.3,0,0.5
										c0,5.7,4.6,10.3,10.3,10.3h308.6c2.9,0,5.4-1.2,7.3-3c1.9-1.9,3-4.4,3-7.3c0-0.2,0-0.3,0-0.5H255.7z"/>
								</defs>
								<clipPath id="SVGID_00000111879949415620282950000005312951565418379648_">
									<use xlink:href="#SVGID_00000054963739209353197360000006577680772027280809_"  overflow="visible"/>
								</clipPath>
								<path clip-path="url(#SVGID_00000111879949415620282950000005312951565418379648_)" fill="#604222" d="M521.6,279.7
									c0,1.9-1.6,3.5-3.5,3.5s-3.5-1.6-3.5-3.5s1.6-3.5,3.5-3.5S521.6,277.8,521.6,279.7z"/>
							</g>
						</g>
					</g>
				</g>
			</g>
		</g>
	</g>
</g>
<g id="smallMillOne">
	<g>
		<rect x="390.5" y="164.2" fill="#FFFFFF" width="2.7" height="6.9"/>
		<rect x="391.8" y="164.2" fill="#CECECE" width="1.3" height="6.9"/>
		<path fill="#EDEDED" d="M393.7,135.9c-0.1-1.1-0.9-1.9-2-1.9c-1,0-1.9,0.8-1.9,1.9l-1.2,27.2c-0.1,1.9,1.1,3.6,2.5,3.6h1.3
			c1.5,0,2.6-1.6,2.5-3.6L393.7,135.9z"/>
		<path fill="#FFFFFF" d="M391.8,134v32.7h-0.7c-1.5,0-2.6-1.6-2.5-3.6l1.2-27.2C389.8,134.8,390.7,134,391.8,134L391.8,134z"/>
	</g>
	<g>
		
			<rect x="395.5" y="172" transform="matrix(0.3749 -0.9271 0.9271 0.3749 85.3893 477.5525)" fill="#FFFFFF" width="2.7" height="6.9"/>
		
			<rect x="395.9" y="172.6" transform="matrix(0.3749 -0.9271 0.9271 0.3749 84.6957 477.6255)" fill="#CECECE" width="1.3" height="6.9"/>
		<path fill="#EDEDED" d="M425.5,189.1c1,0.4,2.1-0.1,2.5-1.1s-0.1-2.1-1-2.5l-24.7-11.3c-1.8-0.8-3.7-0.4-4.3,1l-0.5,1.2
			c-0.6,1.4,0.5,3,2.4,3.7L425.5,189.1z"/>
		<path fill="#FFFFFF" d="M428,188l-30.3-12.2l0.2-0.6c0.6-1.4,2.5-1.8,4.3-1l24.7,11.3C428,185.9,428.4,187,428,188L428,188z"/>
	</g>
	<g>
		
			<rect x="383.4" y="174" transform="matrix(0.9271 -0.3749 0.3749 0.9271 -37.5405 157.8025)" fill="#FFFFFF" width="6.9" height="2.7"/>
		
			<rect x="383.5" y="175.3" transform="matrix(0.927 -0.375 0.375 0.927 -37.7483 157.9583)" fill="#CECECE" width="6.9" height="1.3"/>
		<path fill="#EDEDED" d="M358,189.1c-1,0.4-2.1-0.1-2.5-1.1s0.1-2.1,1-2.5l24.7-11.3c1.8-0.8,3.7-0.4,4.3,1l0.5,1.2
			c0.6,1.4-0.5,3-2.4,3.7L358,189.1z"/>
		<path fill="#FFFFFF" d="M355.6,188l30.3-12.2l-0.2-0.6c-0.6-1.4-2.5-1.8-4.3-1l-24.7,11.3C355.6,185.9,355.2,187,355.6,188
			L355.6,188z"/>
	</g>
	<path fill="#3E7B7A" d="M395.4,173c0,2-1.6,3.6-3.6,3.6s-3.6-1.6-3.6-3.6s1.6-3.6,3.6-3.6S395.4,171,395.4,173z"/>
	<path fill="#569692" d="M393.9,173c0,1.2-1,2.1-2.1,2.1c-1.2,0-2.1-1-2.1-2.1c0-1.2,1-2.1,2.1-2.1C393,170.8,393.9,171.8,393.9,173
		z"/>
</g>
<g id="SmallMillTwo">
	<g>
		<rect x="507.2" y="181.5" fill="#FFFFFF" width="2.7" height="6.9"/>
		<rect x="508.5" y="181.5" fill="#CECECE" width="1.3" height="6.9"/>
		<path fill="#EDEDED" d="M510.4,153.2c-0.1-1.1-0.9-1.9-2-1.9c-1,0-1.9,0.8-1.9,1.9l-1.2,27.2c-0.1,1.9,1.1,3.6,2.5,3.6h1.3
			c1.5,0,2.6-1.6,2.5-3.6L510.4,153.2z"/>
		<path fill="#FFFFFF" d="M508.5,151.3V184h-0.7c-1.5,0-2.6-1.6-2.5-3.6l1.2-27.2C506.5,152.1,507.4,151.3,508.5,151.3L508.5,151.3z
			"/>
	</g>
	<g>
		
			<rect x="512.1" y="189.3" transform="matrix(0.3749 -0.9271 0.9271 0.3749 142.3051 596.5278)" fill="#FFFFFF" width="2.7" height="6.9"/>
		
			<rect x="512.5" y="189.8" transform="matrix(0.3749 -0.9271 0.9271 0.3749 141.6115 596.6009)" fill="#CECECE" width="1.3" height="6.9"/>
		<path fill="#EDEDED" d="M542.2,206.4c1,0.4,2.1-0.1,2.5-1.1c0.4-1-0.1-2.1-1-2.5L519,191.5c-1.8-0.8-3.7-0.4-4.3,1l-0.5,1.2
			c-0.6,1.4,0.5,3,2.4,3.7L542.2,206.4z"/>
		<path fill="#FFFFFF" d="M544.7,205.3l-30.3-12.2l0.2-0.6c0.6-1.4,2.5-1.8,4.3-1l24.7,11.3C544.7,203.2,545.1,204.3,544.7,205.3
			L544.7,205.3z"/>
	</g>
	<g>
		
			<rect x="500" y="191.3" transform="matrix(0.9271 -0.3749 0.3749 0.9271 -35.5103 202.8052)" fill="#FFFFFF" width="6.9" height="2.7"/>
		
			<rect x="500.2" y="192.6" transform="matrix(0.927 -0.375 0.375 0.927 -35.7145 202.9759)" fill="#CECECE" width="6.9" height="1.3"/>
		<path fill="#EDEDED" d="M474.7,206.4c-1,0.4-2.1-0.1-2.5-1.1s0.1-2.1,1-2.5l24.7-11.3c1.8-0.8,3.7-0.4,4.3,1l0.5,1.2
			c0.6,1.4-0.5,3-2.4,3.7L474.7,206.4z"/>
		<path fill="#FFFFFF" d="M472.3,205.3l30.3-12.2l-0.2-0.6c-0.6-1.4-2.5-1.8-4.3-1l-24.7,11.3C472.3,203.2,471.9,204.3,472.3,205.3
			L472.3,205.3z"/>
	</g>
	<path fill="#3E7B7A" d="M512.1,190.3c0,2-1.6,3.6-3.6,3.6s-3.6-1.6-3.6-3.6s1.6-3.6,3.6-3.6S512.1,188.3,512.1,190.3z"/>
	<path fill="#569692" d="M510.6,190.3c0,1.2-1,2.1-2.1,2.1c-1.2,0-2.1-1-2.1-2.1c0-1.2,1-2.1,2.1-2.1
		C509.7,188.1,510.6,189.1,510.6,190.3z"/>
</g>
<g id="bigWings">
	<path fill="none" d="M505.6,147.4c0,29.3-23.7,53.1-53.1,53.1c-29.3,0-53.1-23.7-53.1-53.1s23.7-53.1,53.1-53.1
		C481.9,94.3,505.6,118,505.6,147.4z"/>
	<g>
		<g>
			<rect x="450.9" y="136.3" fill="#FFFFFF" width="3.5" height="9.1"/>
			<rect x="452.6" y="136.3" fill="#CECECE" width="1.8" height="9.1"/>
			<path fill="#EDEDED" d="M455.1,98.9c-0.1-1.4-1.2-2.5-2.6-2.5s-2.5,1.1-2.6,2.5l-1.6,35.8c-0.1,2.6,1.4,4.7,3.3,4.7h1.7
				c1.9,0,3.4-2.2,3.3-4.7L455.1,98.9z"/>
			<path fill="#FFFFFF" d="M452.6,96.4v43.1h-0.9c-1.9,0-3.4-2.2-3.3-4.7L450,99C450,97.5,451.2,96.4,452.6,96.4L452.6,96.4z"/>
		</g>
		<g>
			
				<rect x="457.4" y="146.4" transform="matrix(0.3749 -0.9271 0.9271 0.3749 147.057 520.0831)" fill="#FFFFFF" width="3.5" height="9.1"/>
			
				<rect x="458" y="147.2" transform="matrix(0.3748 -0.9271 0.9271 0.3748 146.1774 520.3652)" fill="#CECECE" width="1.8" height="9.1"/>
			<path fill="#EDEDED" d="M497.1,169c1.3,0.5,2.8-0.2,3.3-1.4c0.5-1.3-0.1-2.7-1.4-3.3l-32.6-14.9c-2.3-1.1-4.9-0.5-5.6,1.3
				l-0.7,1.6c-0.7,1.8,0.7,4,3.1,4.8L497.1,169z"/>
			<path fill="#FFFFFF" d="M500.4,167.7l-39.9-16.1l0.3-0.8c0.7-1.8,3.3-2.4,5.6-1.3l32.6,14.9C500.3,164.9,500.9,166.3,500.4,167.7
				L500.4,167.7z"/>
		</g>
		<g>
			
				<rect x="441.4" y="149.2" transform="matrix(0.9271 -0.3749 0.3749 0.9271 -24.0785 178.1914)" fill="#FFFFFF" width="9.1" height="3.5"/>
			
				<rect x="441.7" y="150.9" transform="matrix(0.9271 -0.3749 0.3749 0.9271 -24.3639 178.3793)" fill="#CECECE" width="9.1" height="1.8"/>
			<path fill="#EDEDED" d="M408.1,169c-1.3,0.5-2.8-0.2-3.3-1.4c-0.5-1.3,0.1-2.7,1.4-3.3l32.6-14.9c2.3-1.1,4.9-0.5,5.6,1.3
				l0.7,1.6c0.7,1.8-0.7,4-3.1,4.8L408.1,169z"/>
			<path fill="#FFFFFF" d="M404.8,167.7l39.9-16.1l-0.3-0.8c-0.7-1.8-3.3-2.4-5.6-1.3l-32.6,14.9
				C404.9,164.9,404.3,166.3,404.8,167.7L404.8,167.7z"/>
		</g>
	</g>
	<path fill="#3E7B7A" d="M457.4,147.4c0,2.6-2.1,4.8-4.8,4.8c-2.6,0-4.8-2.1-4.8-4.8s2.1-4.8,4.8-4.8
		C455.2,142.6,457.4,144.7,457.4,147.4z"/>
	<path fill="#569692" d="M455.4,147.4c0,1.6-1.3,2.8-2.8,2.8c-1.6,0-2.8-1.3-2.8-2.8c0-1.6,1.3-2.8,2.8-2.8
		C454.2,144.5,455.4,145.8,455.4,147.4z"/>
</g>
</svg>
